<?xml version="1.0" encoding="UTF-8" standalone="no"?>
<!-- Created with Inkscape (http://www.inkscape.org/) -->

<svg
   xmlns:dc="http://purl.org/dc/elements/1.1/"
   xmlns:cc="http://creativecommons.org/ns#"
   xmlns:rdf="http://www.w3.org/1999/02/22-rdf-syntax-ns#"
   xmlns:svg="http://www.w3.org/2000/svg"
   xmlns="http://www.w3.org/2000/svg"
   version="1.1"
   width="60"
   height="60"
   id="svg2">
  <defs
     id="defs4" />
  <metadata
     id="metadata7">
    <rdf:RDF>
      <cc:Work
         rdf:about="">
        <dc:format>image/svg+xml</dc:format>
        <dc:type
           rdf:resource="http://purl.org/dc/dcmitype/StillImage" />
        <dc:title></dc:title>
      </cc:Work>
    </rdf:RDF>
  </metadata>
  <g
     transform="translate(0,-992.36218)"
     id="layer1">
    <path
       d="m 13.486239,25.779817 -0.366973,11.376146 c 0,0 2.201835,3.577982 6.330275,3.853211 4.128441,0.275229 15.87156,0.27523 15.87156,0.27523 0,0 6.718455,-0.925462 6.788991,-2.844037 l 0.458715,-12.477064 z"
       transform="translate(0,992.36218)"
       id="path3857"
       style="fill:#87aade;stroke:#87aade;stroke-width:1px;stroke-linecap:butt;stroke-linejoin:miter;stroke-opacity:1" />
    <path
       d="M 30.091743,33.577982 48.807339,23.027523 27.522936,12.844036 7.6146789,22.568807 25.412844,33.486238 z"
       transform="translate(0,992.36218)"
       id="path3855"
       style="fill:#afc6e9;stroke:#afc6e9;stroke-width:1.70000005;stroke-linecap:butt;stroke-linejoin:round;stroke-miterlimit:15.60000038;stroke-opacity:1;stroke-dasharray:none" />
    <path
       d="m 28.256881,20.550459 c -0.307551,0.744884 1.433241,0.372092 1.834863,1.376146 4.556575,1.009175 13.211318,1.804591 14.495412,3.302753 1.362135,1.573645 1.376147,13.394495 0,14.036697 -0.610228,0 -0.468403,4.791474 -0.917431,5.321101 -1.02832,1.212899 5.050914,1.643767 3.669724,0.733945 -0.928143,-0.611389 0.390292,-6.529491 -0.642201,-6.697249 -1.433016,-0.232834 -1.035255,-2.094748 -0.917431,-14.220183 -8.511991,-1.31211 -10.27523,-2.446483 -15.412845,-3.669724 -0.321885,0.511056 -2.110091,-0.183486 -2.110091,-0.183486 z"
       transform="translate(0,992.36218)"
       id="path3859"
       style="fill:#ff7f2a;stroke:#ff7f2a;stroke-width:1;stroke-linecap:butt;stroke-linejoin:round;stroke-miterlimit:4;stroke-opacity:1;stroke-dasharray:none" />
    <path
       d="m 31.009175,21.238533 a 1.7889909,1.6055046 0 1 1 -3.577982,0 1.7889909,1.6055046 0 1 1 3.577982,0 z"
       transform="matrix(0.85125805,0,0,0.74854468,4.0710378,997.47337)"
       id="path3861"
       style="fill:#ffb380;fill-opacity:1;stroke:#ffb380;stroke-width:1;stroke-linecap:butt;stroke-linejoin:round;stroke-miterlimit:4;stroke-opacity:1;stroke-dasharray:none" />
    <path
       d="m 46.972477,1030.986 c -1.083871,-0.2354 -0.815201,1.523 -2.568808,0.1835"
       id="path3863"
       style="fill:#ffb380;stroke:#ffb380;stroke-width:1px;stroke-linecap:round;stroke-linejoin:miter;stroke-opacity:1" />
  </g>
</svg>
